<?xml version="1.0" standalone="no"?>
<!DOCTYPE svg PUBLIC "-//W3C//DTD SVG 20010904//EN"
 "http://www.w3.org/TR/2001/REC-SVG-20010904/DTD/svg10.dtd">
<svg version="1.0" xmlns="http://www.w3.org/2000/svg"
 width="512.000000pt" height="512.000000pt" viewBox="0 0 512.000000 512.000000"
 preserveAspectRatio="xMidYMid meet">
<metadata>
Created by potrace 1.14, written by Peter Selinger 2001-2017
</metadata>
<g transform="translate(0.000000,512.000000) scale(0.100000,-0.100000)"
fill="#000000" stroke="none">
<path d="M1850 4790 c-1 -25 -1 -152 -1 -282 0 -131 -4 -238 -7 -239 -4 0 -97
-2 -207 -3 -110 -2 -203 -4 -206 -5 -4 0 -7 -49 -7 -108 0 -60 0 -122 -1 -139
l-1 -32 -136 0 c-82 0 -139 -4 -143 -10 -3 -6 -5 -69 -4 -141 1 -128 1 -131
-20 -132 -12 -1 -76 -2 -142 -2 l-120 -2 -1 -475 c-1 -261 -2 -485 -3 -496 -1
-22 -1 -22 -283 -20 l-283 1 0 778 c0 772 0 778 -20 782 -11 2 -74 3 -140 2
l-120 -2 -3 -782 -2 -782 107 1 c60 0 124 -1 143 -1 l35 -1 0 -140 0 -140 35
-1 c19 -1 146 -1 282 -1 176 -1 248 -4 249 -12 1 -6 2 -229 2 -496 l2 -485
283 0 282 0 1 -25 c0 -14 1 -175 1 -358 l1 -333 79 3 c47 2 78 -1 78 -7 0 -7
3 -7 8 0 4 6 56 10 120 10 68 0 112 -4 112 -10 0 -7 3 -7 8 0 4 6 34 10 67 10
33 0 63 -4 67 -10 5 -7 8 -7 8 0 0 6 16 10 35 10 19 0 35 -4 35 -8 0 -5 5 -5
12 -1 6 4 28 8 47 8 l35 1 0 353 c0 348 0 352 20 353 24 1 780 0 812 0 20 -1
21 -4 21 -354 l0 -352 96 0 c54 0 97 -3 97 -7 0 -3 8 -4 18 -2 38 9 142 9 142
-1 0 -7 3 -7 8 0 4 6 56 10 120 10 68 0 112 -4 112 -10 0 -7 3 -7 8 0 4 6 30
10 57 10 l50 0 1 348 c1 191 4 351 8 354 3 3 124 6 268 5 145 0 270 1 279 4
15 4 16 50 17 477 0 259 1 482 1 493 1 21 4 21 249 22 136 0 263 0 283 1 l36
1 -1 134 c-1 74 -4 138 -8 142 -4 4 -132 7 -283 7 -245 0 -275 2 -276 16 0 9
-1 232 -1 497 l-1 481 -126 0 c-69 1 -133 2 -142 2 -14 1 -16 19 -15 141 l1
140 -25 1 c-14 0 -78 1 -142 1 l-118 0 -1 26 c0 15 -2 79 -2 142 l-2 115 -212
0 -212 0 0 240 c0 132 0 260 0 285 l-1 45 -137 -1 c-76 -1 -140 -2 -143 -3 -3
0 -5 -126 -4 -278 1 -153 -2 -280 -6 -283 -7 -4 -704 -5 -816 -1 l-30 1 0 280
c1 180 -3 280 -9 281 -5 1 -70 2 -142 3 l-133 2 0 -46z m130 -1525 c0 -7 3 -7
8 0 4 6 55 10 117 10 62 0 113 -4 117 -10 5 -6 8 -6 8 1 0 6 10 9 23 7 l22 -4
-1 -552 c-1 -304 -2 -559 -3 -568 -1 -15 -30 -16 -281 -16 l-280 1 -1 25 c0
14 -1 270 -2 568 l-2 542 105 3 c157 4 170 4 170 -7z m970 0 c0 6 45 10 115
10 63 0 115 -3 115 -7 0 -3 8 -4 18 -2 38 9 142 9 142 -1 0 -7 3 -7 8 0 4 6
19 10 35 10 20 1 27 -4 28 -20 3 -60 4 -1093 1 -1106 -3 -14 -36 -16 -283 -16
-153 0 -280 3 -280 6 -1 3 -2 258 -3 566 l-1 560 45 5 c25 3 48 1 52 -5 5 -7
8 -7 8 0z"/>
<path d="M4839 4265 c-1 0 -2 -351 -3 -781 l-1 -781 142 0 143 0 0 782 0 782
-140 -1 c-77 0 -141 -1 -141 -1z"/>
<path d="M944 710 l-90 -5 0 -280 1 -280 283 -1 c155 -1 282 1 283 5 4 36 3
545 -2 552 -6 11 -332 17 -475 9z"/>
<path d="M3728 712 c-16 -2 -28 -9 -29 -15 -1 -13 -1 -538 0 -548 1 -7 528
-10 552 -3 15 4 16 35 16 284 l0 280 -31 0 c-197 4 -487 4 -508 2z"/>
</g>
</svg>
